<svg width="360" height="68" viewBox="0 0 360 68" fill="none" xmlns="http://www.w3.org/2000/svg">
    <g filter="url(#filter0_d)">
        <path d="M248.61 3C242.963 3.00077 237.405 4.40817 232.438 7.09509C227.471 9.78201 223.251 13.6638 220.16 18.39C215.861 24.9906 209.982 30.4132 203.056 34.166C196.13 37.9188 188.377 39.8828 180.5 39.88C172.622 39.8856 164.867 37.9238 157.94 34.1728C151.012 30.4217 145.131 25.0001 140.83 18.4C137.741 13.6734 133.524 9.7905 128.558 7.10187C123.593 4.41323 118.036 3.00352 112.39 3L0 3V68H360V3H248.61Z" fill="white"/>
    </g>
    <defs>
        <filter id="filter0_d" x="-3" y="0" width="366" height="71" filterUnits="userSpaceOnUse" color-interpolation-filters="sRGB">
            <feFlood flood-opacity="0" result="BackgroundImageFix"/>
            <feColorMatrix in="SourceAlpha" type="matrix" values="0 0 0 0 0 0 0 0 0 0 0 0 0 0 0 0 0 0 127 0"/>
            <feOffset/>
            <feGaussianBlur stdDeviation="1.5"/>
            <feColorMatrix type="matrix" values="0 0 0 0 0.239216 0 0 0 0 0.239216 0 0 0 0 0.239216 0 0 0 0.25 0"/>
            <feBlend mode="normal" in2="BackgroundImageFix" result="effect1_dropShadow"/>
            <feBlend mode="normal" in="SourceGraphic" in2="effect1_dropShadow" result="shape"/>
        </filter>
    </defs>
</svg>
